<svg xmlns="http://www.w3.org/2000/svg" xmlns:xlink="http://www.w3.org/1999/xlink" version="1.1" width="256" height="256" viewBox="0 0 256 256" xml:space="preserve">

<defs>
</defs>
<g style="stroke: none; stroke-width: 0; stroke-dasharray: none; stroke-linecap: butt; stroke-linejoin: miter; stroke-miterlimit: 10; fill: none; fill-rule: nonzero; opacity: 1;" transform="translate(1.4065934065934016 1.4065934065934016) scale(2.81 2.81)" >
	<path d="M 67.914 42.224 h -0.458 c -1.022 0 -1.992 0.229 -2.861 0.64 c -0.63 -3.057 -3.344 -5.363 -6.585 -5.363 h -0.458 c -1.167 0 -2.266 0.299 -3.224 0.825 c -1.006 -2.448 -3.416 -4.176 -6.222 -4.176 h -0.458 c -0.969 0 -1.891 0.206 -2.724 0.577 v -9.774 c 0 -3.707 -3.016 -6.723 -6.723 -6.723 h -0.458 c -3.707 0 -6.723 3.016 -6.723 6.723 v 24.896 l -3.101 2.354 c -2.443 1.854 -3.992 4.553 -4.361 7.598 s 0.49 6.036 2.419 8.421 l 9.625 11.898 v 4.743 c 0 2.833 2.305 5.139 5.139 5.139 h 24 c 2.833 0 5.139 -2.306 5.139 -5.139 l 0.001 -4.503 c 3.072 -3.854 4.756 -8.64 4.756 -13.559 V 48.947 C 74.638 45.24 71.621 42.224 67.914 42.224 z M 70.638 66.8 c 0 4.218 -1.519 8.315 -4.276 11.539 c -0.311 0.362 -0.48 0.823 -0.48 1.3 v 5.223 c 0 0.628 -0.511 1.139 -1.139 1.139 h -24 c -0.628 0 -1.139 -0.511 -1.139 -1.139 V 79.41 c 0 -0.458 -0.157 -0.902 -0.445 -1.258 l -10.07 -12.448 c -1.243 -1.536 -1.796 -3.463 -1.558 -5.424 s 1.235 -3.699 2.808 -4.894 l 0.682 -0.518 v 5.735 c 0 1.104 0.896 2 2 2 s 2 -0.896 2 -2 V 50.86 c 0 -0.014 0 -0.028 0 -0.042 V 24.952 c 0 -1.501 1.221 -2.723 2.723 -2.723 h 0.458 c 1.501 0 2.723 1.222 2.723 2.723 v 15.92 c 0 0 0 0 0 0.001 s 0 0 0 0.001 l 0.01 13.242 c 0.001 1.104 0.896 1.998 2 1.998 c 0 0 0.001 0 0.001 0 c 1.104 -0.001 2 -0.896 1.999 -2.002 l -0.01 -13.24 c 0 -1.501 1.222 -2.723 2.724 -2.723 h 0.458 c 1.501 0 2.723 1.222 2.723 2.723 v 3.352 c 0 0 0 0.001 0 0.001 c 0 0 0 0.001 0 0.001 l 0.01 9.89 c 0.001 1.104 0.896 1.998 2 1.998 c 0.001 0 0.001 0 0.002 0 c 1.104 -0.001 1.999 -0.897 1.998 -2.002 l -0.01 -9.888 c 0 -1.501 1.222 -2.723 2.723 -2.723 h 0.458 c 1.502 0 2.724 1.222 2.724 2.723 v 4.195 c -0.006 0.066 -0.02 0.13 -0.02 0.197 l 0.01 5.502 c 0.002 1.104 0.896 1.996 2 1.996 c 0.001 0 0.002 0 0.004 0 c 1.104 -0.002 1.998 -0.899 1.996 -2.004 l -0.009 -4.979 c 0.006 -0.062 0.019 -0.121 0.019 -0.184 c 0 -1.502 1.222 -2.723 2.723 -2.723 h 0.458 c 1.502 0 2.724 1.221 2.724 2.723 V 66.8 z" style="stroke: none; stroke-width: 1; stroke-dasharray: none; stroke-linecap: butt; stroke-linejoin: miter; stroke-miterlimit: 10; fill: rgb(0,0,0); fill-rule: nonzero; opacity: 1;" transform=" matrix(1 0 0 1 0 0) " stroke-linecap="round" />
	<path d="M 25.022 31.526 c -0.523 0 -1.046 -0.204 -1.438 -0.611 c -0.882 -0.913 -1.576 -1.696 -2.122 -2.395 C 14.78 19.968 13.451 9.785 18.3 4.306 c 2.342 -2.646 5.629 -4.173 9.254 -4.298 C 31.15 -0.11 34.747 1.172 37.83 3.667 c 3.084 -2.495 6.704 -3.785 10.276 -3.659 c 3.625 0.125 6.911 1.652 9.254 4.298 c 4.849 5.479 3.519 15.663 -3.162 24.214 c -0.546 0.699 -1.26 1.505 -2.12 2.396 c -0.769 0.795 -2.036 0.815 -2.828 0.048 c -0.795 -0.768 -0.816 -2.034 -0.049 -2.828 c 0.764 -0.791 1.385 -1.49 1.845 -2.079 c 5.405 -6.919 6.832 -15.13 3.318 -19.1 c -1.607 -1.816 -3.879 -2.865 -6.396 -2.952 C 44.905 3.9 41.81 5.237 39.232 7.771 c -0.778 0.766 -2.026 0.766 -2.805 0 c -2.577 -2.534 -5.687 -3.879 -8.735 -3.766 c -2.518 0.087 -4.789 1.135 -6.397 2.952 c -3.514 3.97 -2.087 12.181 3.318 19.1 c 0.453 0.58 1.074 1.279 1.847 2.08 c 0.768 0.794 0.746 2.061 -0.049 2.828 C 26.023 31.34 25.522 31.526 25.022 31.526 z" style="stroke: none; stroke-width: 1; stroke-dasharray: none; stroke-linecap: butt; stroke-linejoin: miter; stroke-miterlimit: 10; fill: rgb(0,0,0); fill-rule: nonzero; opacity: 1;" transform=" matrix(1 0 0 1 0 0) " stroke-linecap="round" />
</g>
</svg>