<svg width="299" height="151" viewBox="0 0 299 151" fill="none" xmlns="http://www.w3.org/2000/svg" data-v-516b1fa6=""><path d="M53.0855 149.339C53.0855 149.339 22.8963 154.872 13.2897 133.93C0.81987 106.751 26.434 86.1411 46.0828 89.9854C88.8871 98.3475 78.5751 6.0537 147.274 24.8917C166.591 30.1866 218.784 -1.27219 233.339 49.1697C236.804 61.1688 249.066 62.4848 266.868 70.1008C301.705 85.0013 285.781 149.587 260.882 149.836C235.984 150.085 53.0855 149.339 53.0855 149.339Z" fill="#EBF2FF"></path><path d="M201.678 129.668L201.213 130.103C200.299 130.958 198.82 130.958 197.914 130.103L172.049 105.907C171.135 105.052 171.135 103.668 172.049 102.82L172.514 102.385C173.428 101.53 174.907 101.53 175.814 102.385L201.678 126.581C202.592 127.429 202.592 128.813 201.678 129.668Z" fill="#12264B"></path><path d="M128.607 56.6149C115.798 69.423 115.798 90.199 128.607 103.019C141.416 115.827 162.193 115.827 175.014 103.019C187.823 90.2105 187.823 69.4346 175.014 56.6149C162.193 43.795 141.416 43.795 128.607 56.6149ZM172.45 100.455C161.044 111.86 142.555 111.86 131.16 100.455C119.754 89.0492 119.754 70.5612 131.16 59.1672C142.566 47.7617 161.055 47.7617 172.45 59.1672C183.856 70.5727 183.856 89.0607 172.45 100.455Z" fill="#12264B"></path><path opacity="0.4" d="M164.735 53.4296L125.63 92.5327C126.262 93.8204 126.998 95.0622 127.815 96.2349L168.437 55.6142C167.265 54.7979 166.034 54.062 164.735 53.4296Z" fill="white"></path><path opacity="0.4" d="M162.056 52.2683C158.871 51.0725 155.421 50.4287 151.822 50.4287C135.702 50.4287 122.629 63.5013 122.629 79.6209C122.629 83.2196 123.284 86.6688 124.468 89.8537L162.056 52.2683Z" fill="white"></path><path opacity="0.4" d="M138.887 105.801C142.785 107.733 147.177 108.813 151.823 108.813C167.943 108.813 181.016 95.7407 181.016 79.6212C181.016 74.9762 179.936 70.5841 178.004 66.6865L138.887 105.801Z" fill="white"></path><path d="M146.834 88.1141C146.834 88.1141 149.614 84.5241 153.204 86.7441" stroke="black" stroke-width="1.9703" stroke-miterlimit="10" stroke-linecap="round"></path><path d="M137.894 79.8041C139.291 79.8041 140.424 78.6714 140.424 77.2741C140.424 75.8769 139.291 74.7441 137.894 74.7441C136.496 74.7441 135.364 75.8769 135.364 77.2741C135.364 78.6714 136.496 79.8041 137.894 79.8041Z" fill="black"></path><path d="M163.864 79.8041C165.261 79.8041 166.394 78.6714 166.394 77.2741C166.394 75.8769 165.261 74.7441 163.864 74.7441C162.466 74.7441 161.334 75.8769 161.334 77.2741C161.334 78.6714 162.466 79.8041 163.864 79.8041Z" fill="black"></path><path d="M204.952 133.329C203.688 134.601 201.582 134.628 200.252 133.382L173.33 108.234C172 106.987 171.939 104.942 173.203 103.671C174.466 102.399 176.573 102.372 177.903 103.618L204.826 128.758C206.156 130.005 206.217 132.05 204.952 133.329Z" fill="#E78B40" stroke="black" stroke-width="1.9703" stroke-miterlimit="10"></path></svg>